PathFileType  4	(X/Y/Z) C:\Users\antoi\Documents\MyRepositories\mobilecap\ResultsAnalysis
DataRate	CameraRate	NumFrames	NumMarkers	Units	OrigDataRate	OrigDataStartFrame	OrigNumFrames
100.0	100.0	5	51	mm	100.0	1	141
Frame#	Time	r_knee			r_shank_antsup			r_ankle			r_calc			r_5meta			r_toe			L_knee			L_shank_antsup			L_ankle			L_calc			L_5meta			L_toe			r_sh2			r_sh3			r_sh4			L_sh2			L_sh3			r_thigh1			r_thigh2			r_thigh3			r_thigh4			r_thigh5			L_thigh1			L_thigh2			L_thigh3			L_thigh4			r.ASIS			r.PSIS			L.ASIS			L.PSIS			C7			R_Shoulder			L_Shoulder			R_Sternum			L_Sternum			R_humerus			R_elbow_med			R_elbow_lat			R_forearm			R_wrist_radius			R_wrist_ulna			L_humerus			L_elbow_med			L_elbow_lat			L_forearm			L_wrist_radius			L_wrist_ulna			R_HJC			L_HJC			R_HJC_reg			L_HJC_reg			
		X1	Y1	Z1	X2	Y2	Z2	X3	Y3	Z3	X4	Y4	Z4	X5	Y5	Z5	X6	Y6	Z6	X7	Y7	Z7	X8	Y8	Z8	X9	Y9	Z9	X10	Y10	Z10	X11	Y11	Z11	X12	Y12	Z12	X13	Y13	Z13	X14	Y14	Z14	X15	Y15	Z15	X16	Y16	Z16	X17	Y17	Z17	X18	Y18	Z18	X19	Y19	Z19	X20	Y20	Z20	X21	Y21	Z21	X22	Y22	Z22	X23	Y23	Z23	X24	Y24	Z24	X25	Y25	Z25	X26	Y26	Z26	X27	Y27	Z27	X28	Y28	Z28	X29	Y29	Z29	X30	Y30	Z30	X31	Y31	Z31	X32	Y32	Z32	X33	Y33	Z33	X34	Y34	Z34	X35	Y35	Z35	X36	Y36	Z36	X37	Y37	Z37	X38	Y38	Z38	X39	Y39	Z39	X40	Y40	Z40	X41	Y41	Z41	X42	Y42	Z42	X43	Y43	Z43	X44	Y44	Z44	X45	Y45	Z45	X46	Y46	Z46	X47	Y47	Z47	X48	Y48	Z48	X49	Y49	Z49	X50	Y50	Z50	X51	Y51	Z51	

1	0.00000000	-75.63391	495.44263	-103.42668	-1.23757	428.89725	-109.81529	78.19032	108.94504	-126.28596	45.03685	48.56393	-178.81584	207.54249	122.50189	-85.66336	217.24289	170.87055	-136.02243	-389.82851	486.83206	-378.85057	-393.72068	393.11808	-361.00473	-600.13589	125.99560	-339.95235	-684.23342	105.37785	-294.59458	-517.06643	38.64587	-373.04770	-465.64499	53.70824	-315.42492	40.02980	323.73003	-114.36307	-61.26873	402.48449	-71.42675	-25.79304	292.97453	-71.40949	-460.01097	438.44155	-404.36909	-519.99059	333.00537	-405.09036	-149.61617	762.41516	-79.26945	-98.75813	667.37922	-93.91467	-131.25014	618.84743	-61.69193	-248.35415	706.37810	-59.44281	-184.82846	608.64703	-80.39663	-235.08759	700.39173	-404.50888	-265.19997	566.93395	-374.60676	-335.15530	713.86402	-444.64365	-367.73218	590.47425	-402.95470	-174.00105	932.50132	-128.25537	-379.45856	953.90829	-204.99212	-172.76359	922.61249	-388.68723	-378.51878	963.97774	-298.08972	-327.84532	1417.04407	-261.11516	-272.68093	1369.26717	-88.04819	-229.70724	1384.23656	-406.93185	-208.93814	1336.00542	-226.07041	-205.67897	1339.91058	-271.26501	-252.74992	1235.71257	-33.14412	-350.18223	1043.75108	-85.07092	-350.46721	1054.97790	-17.36390	-302.23694	987.70921	13.44862	-249.69219	823.97960	-5.04174	-293.24630	824.36418	23.37664	-187.97710	1245.65794	-459.53694	-261.23055	1042.94903	-440.06464	-221.26221	1058.12137	-505.80609	-160.51802	1011.06157	-497.20885	-87.89074	854.81157	-451.20561	-109.75092	848.63638	-497.04660	-253.99534	841.64989	-151.77077	-256.38151	839.28205	-341.30271	-239.65852	832.95211	-175.52098	-237.93330	851.44939	-346.52340	
2	0.01000000	-59.71024	493.63063	-105.19729	13.38239	425.34645	-111.85290	86.36830	104.86524	-127.74515	51.37520	46.78730	-180.19526	215.49197	115.53498	-87.28899	226.82873	163.22560	-137.86562	-376.55004	485.34981	-378.79443	-382.42047	391.25528	-360.92713	-596.08357	129.91757	-340.26883	-680.58192	112.18720	-294.76459	-516.15323	39.18591	-372.99796	-464.17919	52.99462	-315.48276	52.79757	319.40579	-116.46508	-46.88713	400.14830	-73.19839	-13.76578	290.01424	-73.36797	-447.55272	438.59731	-404.13045	-510.53932	334.76814	-404.83320	-133.10815	760.67511	-78.96470	-82.22554	665.83032	-94.57150	-115.24206	616.84443	-63.16452	-232.03245	704.46985	-59.90529	-168.13110	606.10429	-82.24200	-221.08555	698.43827	-405.00763	-251.26469	565.08145	-375.13367	-321.20729	712.30134	-444.20953	-354.02617	589.04416	-402.45413	-158.05076	930.87834	-127.96557	-364.08021	952.06289	-204.91367	-157.51048	920.90215	-388.39356	-362.79891	962.04672	-297.80999	-315.46186	1415.20697	-256.36570	-259.62272	1365.70781	-84.21437	-216.71017	1384.69891	-402.81148	-195.64976	1334.33448	-222.59181	-192.19807	1338.86779	-267.71565	-239.12804	1231.57667	-30.96270	-335.75706	1039.94790	-85.15231	-336.69985	1050.61456	-17.42709	-288.90326	983.14832	13.36353	-236.40945	819.52701	-5.45435	-280.40628	819.70325	22.29448	-174.11185	1246.76458	-456.44384	-247.29693	1043.78290	-437.93412	-207.92807	1059.45203	-504.10725	-147.13034	1012.03255	-496.19230	-75.35093	854.85630	-452.17877	-97.22893	849.41934	-498.00389	-238.23941	839.95890	-151.48951	-240.75195	837.47436	-341.01807	-224.30546	831.29602	-175.41176	-221.94203	849.67174	-346.41884	
3	0.02000000	-43.92856	491.88685	-106.85775	27.92877	421.99890	-113.89142	94.39477	101.04390	-129.12061	57.38669	45.56550	-181.51518	223.29607	108.26440	-89.02938	236.43882	155.15324	-139.87468	-362.92834	483.82620	-378.74171	-370.79169	389.35855	-360.89703	-591.72335	133.95979	-340.58856	-676.59725	119.27588	-294.91262	-515.17906	39.78811	-372.94493	-462.66611	52.27506	-315.52801	65.55085	315.31565	-118.57062	-32.55608	397.96779	-74.94063	-1.67982	287.24553	-75.30429	-434.76183	438.76120	-403.89275	-500.73455	336.58408	-404.59584	-116.54728	759.03763	-78.75437	-65.75292	664.27559	-95.26206	-99.29622	614.97257	-64.58601	-215.74230	702.75939	-60.34717	-151.54896	603.71332	-84.01758	-206.83921	696.54550	-405.44736	-237.02931	563.24874	-375.66691	-307.07334	710.74811	-443.73498	-340.02688	587.57710	-401.94640	-142.00413	929.24202	-127.63936	-348.64435	950.30807	-204.74125	-142.14564	919.25330	-388.04144	-346.98551	960.24273	-297.49049	-303.01197	1413.36404	-251.68433	-246.52924	1362.22280	-80.35928	-203.73628	1385.22662	-398.68624	-182.31614	1332.78596	-219.07237	-178.67045	1337.92778	-264.12851	-225.42572	1227.55672	-28.73246	-321.24247	1036.24446	-85.17349	-322.79475	1046.34091	-17.42772	-275.44647	978.67724	13.32014	-223.04850	815.13734	-5.87192	-267.45577	815.13210	21.24180	-160.29057	1247.91080	-453.35940	-233.36850	1044.66205	-435.79794	-194.59164	1060.82572	-502.38777	-133.78011	1013.03913	-495.17582	-62.83203	854.93125	-453.16744	-84.77713	850.23320	-498.97617	-222.43523	838.29319	-151.18183	-225.07058	835.75206	-340.70854	-208.92268	829.67287	-175.31605	-205.85791	847.98022	-346.30425	
4	0.03000000	-28.38547	490.31500	-108.30803	42.36318	419.03785	-115.90449	102.15333	97.68949	-130.34005	62.84340	45.26843	-182.70906	230.82933	100.52518	-90.96772	246.02787	146.40213	-142.16878	-348.64949	482.21848	-378.70331	-358.53928	387.39670	-360.95973	-586.76626	138.21544	-340.91806	-671.97086	126.89254	-295.03419	-514.08302	40.51045	-372.88514	-461.07096	51.54026	-315.55118	78.28503	311.66676	-120.65578	-18.28591	396.09880	-76.59644	10.52775	284.84798	-77.16420	-421.30956	438.91678	-403.66489	-490.25189	338.49543	-404.39962	-99.90999	757.63662	-78.71152	-49.38971	662.77651	-96.00524	-83.45417	613.37900	-65.89427	-199.51060	701.43690	-60.72960	-135.18280	601.67738	-85.60686	-192.14831	694.76879	-405.77633	-222.22308	561.45635	-376.20476	-292.58976	709.21232	-443.18406	-325.46684	586.03079	-401.43622	-125.80268	927.60897	-127.24072	-333.10429	948.73310	-204.40940	-126.58759	917.71941	-387.58535	-331.01393	958.65980	-297.11502	-290.44453	1411.54304	-247.10747	-233.37674	1358.88091	-76.46997	-190.79276	1385.87446	-394.55593	-168.90024	1331.46784	-215.48176	-165.06219	1337.18028	-260.47467	-211.58058	1223.75153	-26.41998	-306.55680	1032.72426	-85.08796	-308.63943	1042.23709	-17.31811	-261.76307	974.37508	13.35286	-209.54393	810.87090	-6.29333	-254.30209	810.73053	20.24653	-146.54518	1249.13186	-450.30015	-219.45150	1045.62519	-433.65766	-181.24336	1062.27894	-500.63255	-120.48729	1014.11187	-494.15552	-50.36377	855.06160	-454.18162	-72.44797	851.10589	-499.96871	-206.55230	836.69573	-150.81935	-209.29617	834.18504	-340.34692	-193.49013	828.14564	-175.20674	-189.63085	846.43595	-346.14441	
5	0.04000000	-13.10941	489.06125	-109.47262	56.68674	416.59903	-117.83090	109.55908	94.92773	-131.35300	67.65100	45.98048	-183.70729	237.97676	92.37245	-93.12038	255.43350	137.00253	-144.77410	-333.45802	480.48146	-378.70083	-345.42914	385.34500	-361.15557	-580.95680	142.73750	-341.26900	-666.42877	135.22824	-295.15100	-512.80069	41.41080	-372.81539	-459.37169	50.78267	-315.54858	90.98502	308.60426	-122.66057	-4.04356	394.68332	-78.07228	22.89917	282.96864	-78.84902	-406.89402	439.01597	-403.46876	-478.82139	340.52517	-404.26732	-83.22778	756.64257	-78.86937	-33.17286	661.49002	-96.79703	-67.72392	612.22440	-67.01384	-183.35440	700.66629	-60.98365	-119.10191	600.24632	-86.83997	-176.89120	693.15594	-405.95502	-206.63588	559.72785	-376.73385	-277.63858	707.69692	-442.52981	-310.13595	584.35932	-400.94406	-109.45730	926.04771	-126.73615	-317.44636	947.42655	-203.90424	-110.81619	916.34155	-386.99700	-314.87664	957.34267	-296.70469	-277.73773	1409.81571	-242.63486	-220.16744	1355.74437	-72.55144	-177.86915	1386.67977	-390.43019	-155.38850	1330.46064	-211.81019	-151.36609	1336.69126	-256.74351	-197.56854	1220.23610	-24.01895	-291.64336	1029.44887	-84.87198	-294.17296	1038.37139	-17.07520	-247.79024	970.30916	13.48314	-195.85783	806.78822	-6.70694	-240.88892	806.56691	19.33494	-132.89632	1250.45681	-447.29586	-205.56214	1046.70252	-431.52661	-167.87447	1063.83882	-498.83790	-107.25619	1015.27370	-493.12244	-37.99472	855.26578	-455.22018	-60.27553	852.06019	-500.97139	-190.60116	835.24137	-150.37028	-193.41629	832.81981	-339.90179	-178.01725	826.82540	-174.99944	-173.28417	845.06519	-345.86678	
